<?xml version="1.0" encoding="UTF-8"?>
<svg xmlns="http://www.w3.org/2000/svg" viewBox="0 0 756 268">
    <path id='bg' d="M0 0 758 0 758 268 0 268 0 0" fill="#666666"/>
    <path id="kFill" d="M164.1 79.2 L96.05 132.65 164.1 186 163.95 252.6 64.5 154.1 64.6 231.9 5.3 255.9 5.1 9.4 63.85 33.2 63.85 113 164.1 12.55 164.1 79.2" fill="#007ACC"/>
    <path id="kOutline" d="M164.1 79.2 L164.1 12.55 63.85 113 63.85 33.2 5.1 9.4 5.3 255.9 64.6 231.9 64.5 154.1 163.95 252.6 164.1 186 96.05 132.65 164.1 79.2 M168.45 1 L168.45 82 104.25 132.6 168.35 183.2 168.65 265.25 68.7 165 69.15 235.45 0 263.05 0 2.05 68.75 29.95 69.15 100.65 168.45 1" fill="#FFFFFF"/>
    <path id="oFill" d="M358.35 232.25 L298.85 256 261.75 256 201.55 232.25 201.15 33.2 261.5 8.55 297.95 8.55 358.75 33.6 358.35 232.25 M259.1 54.9 L259.1 210.3 300.35 210.3 300.35 54.9 259.1 54.9" fill="#007ACC"/>
    <path id="oOutline" d="M259.5 261.3 L197.4 236.6 197.4 30.3 259.7 4.45 297.95 4.65 300.15 4.65 362.7 31.15 362.7 231.85 362.7 236.7 360.6 237.55 300.15 261.35 259.7 261.35 259.5 261.3 M295.45 59.9 L263.55 59.85 263.5 205.6 295.45 205.6 295.45 59.9 M259.1 54.9 L300.35 54.9 300.35 210.3 259.1 210.3 259.1 54.9 M358.35 232.25 L358.75 33.6 297.95 8.55 261.5 8.55 201.15 33.2 201.55 232.25 261.75 256 298.85 256 358.35 232.25" fill="#FFFFFF"/>
    <path id="dOutline" d="M523.05 79.35 L458.75 69.8 458.55 195.9 523.25 185.2 523.05 79.35 M527.9 188.4 L453.75 201.05 453.8 64.55 527.55 75.9 527.9 188.4 M390.55 3.85 L558.55 30 559.05 236.2 390.15 263 390.55 3.85 M554.6 33.95 L395.1 9.4 395.55 256.7 553.9 232 554.6 33.95" fill="#FFFFFF"/>
    <path id="dFill" d="M527.9 188.4 L527.55 75.9 453.8 64.55 453.75 201.05 527.9 188.4 M553.9 232 L395.55 256.7 395.1 9.4 554.6 33.95 553.9 232" fill="#007ACC"/>
    <path id="eFill" d="M749.75 54.15 L649.15 70.05 649.15 114 749.75 111.2 749.75 153.7 649.3 150.7 649.45 194.3 749.75 210.3 749.75 256.85 590.45 232.15 590.45 33.75 749.75 9.2 749.75 54.15" fill="#007ACC"/>
    <path id="eOutline" d="M749.75 54.15 L749.75 9.2 590.45 33.75 590.45 232.15 749.75 256.85 749.75 210.3 649.45 194.3 649.3 150.7 749.75 153.7 749.75 111.2 649.15 114 649.15 70.05 749.75 54.15 M754.4 4.05 L754.4 58 653.95 73.9 653.8 109.85 754.4 106.85 754.4 157.6 654.1 154.45 653.8 191 754.4 206.1 754.4 262.25 585.95 235.7 586.2 29.8 754.4 4.05" fill="#FFFFFF"/>
    <path id="s" d="M361.25 166.15 Q345.65 172.05 335 182.05 327.55 190.45 339 191.95 L368.05 195.7 Q391.05 196.15 401.9 204.3 414.15 214.85 401.9 234.35 383.15 255 348.65 261.45 314.15 267.9 306.2 265.45 296.6 261.6 302.15 250 305.2 242.35 312.15 238.65 327.35 230.75 317.8 243.2 317.25 243.85 319.45 243.75 329.5 243.55 370.1 231.85 377.05 228.45 381.5 225.5 L381.9 225.2 Q393.05 217.95 391.05 213.65 390.55 212.6 389.3 211.7 385.5 209.5 381 208.65 376.3 207.6 371.5 207.3 L365.05 206.6 354.45 206.55 331.2 206.35 Q319.95 206.3 316.5 200.2 313.5 194.9 314.8 181.55 315.5 174.35 317.75 169.75 320.55 164.05 326.9 159.1 340.3 148.75 362 141.15 381.4 134.7 396.55 133.9 413.6 133.05 414.55 139.9 416.7 148.45 411 155.8 397.5 162.45 385.75 173.5 374.6 175.6 391.05 158.1 376.15 159.75 361.25 166.15" fill="#FBFF15"/>
    <path id="t" d="M465.6 224.55 Q439.2 258.2 422.65 253.5 415.75 249.9 416.75 240.5 417.7 231.05 418.7 226.85 L410.6 234.6 407.7 227.75 Q418.9 218.05 430.05 197.8 424.5 197.05 414.4 200.5 415.1 195.15 417.55 190.8 418.65 187.7 420.4 185.1 423.55 180.4 428.85 177.85 433.85 175.5 441.35 174.75 444.45 166.95 447.7 163.85 450.55 159.45 455.6 157.85 L458.95 157.05 Q467.4 155.35 462.35 166.55 L460.15 171.15 470.05 170.75 Q464.9 190.8 455.75 193.45 451.25 195.05 445.35 195.65 L438.1 209.7 Q435.25 216.7 434.5 223.4 433.7 230.05 435.3 232.5 436.9 234.9 440.85 234.6 448.25 231.4 453.55 225.25 L459.8 219.15 Q463.15 216.05 466.2 214 465.55 217.85 465.5 221.35 L465.6 224.55" fill="#FBFF15"/>
    <path id="u" d="M548.85 211.5 Q539.95 224.5 531.4 232.05 522.85 239.55 514.6 241.65 507.35 242.1 504.65 233 503.95 224.95 505.25 216.2 499.25 226.6 493.3 232.95 487.85 238.75 483.15 240.35 479.4 241.7 475.7 240.3 471.55 238.65 468.35 233.75 466.05 230.15 465.6 224.55 L465.5 221.35 Q465.55 217.85 466.2 214 466.75 210.25 467.95 206.25 471.85 195.65 480.3 185.05 484.25 181 489.75 179.05 492.4 178.1 495.1 177.95 L500.75 178.5 Q501.95 179.65 501.05 182.6 L500.6 183.95 498.5 187.7 490.55 198.9 488.55 201.45 486.3 204 481.65 209.35 Q479.05 212.3 478.15 216 L478 216.55 478.05 218.95 Q478 223.6 483.1 221.65 499 209 511.4 192.35 L530.9 170.25 Q536.25 164.35 538.5 170.55 541.75 179.5 536.9 185.25 524 200.85 520.8 214.3 521.1 221.65 528.1 218.8 538.2 212.8 548.25 201 L548.2 206.75 Q548.25 209.4 548.85 211.5" fill="#FBFF15"/>
    <path id="d" d="M632.05 198.55 L625 208.15 Q606.7 228.45 598.2 225.3 590 223.65 589.1 202.85 581.15 213.35 572.05 222.35 560.55 234.2 552.6 219.1 551.45 217.8 550.4 215.7 549.4 213.6 548.85 211.5 548.25 209.4 548.2 206.75 L548.25 201 Q549.6 191.15 557.9 182.75 L565.7 175.7 573.55 169.85 Q574.55 169 579.85 166.15 585.25 163.25 586.45 162.95 L590.35 161.95 Q592.3 161.7 594.25 162.4 596.6 163.45 598.45 165.85 603.75 148.85 608.65 137.65 L613.9 127.1 Q621.5 114.1 628.2 116 631.7 117 632 121.3 632.25 125.55 629.5 133.6 627.4 138.95 622.5 149.35 L613.7 168.1 Q604.5 188.4 604.05 194.85 603.6 201.2 604.6 204.95 605.2 207.05 606.25 207.95 607.2 208.75 608.8 208.8 611.4 208.85 617.65 203.35 L622.95 198.05 633.3 188.4 Q636.55 185.25 635.7 190.05 634.8 194.85 632.05 198.55 M594 176.8 Q573.65 185.85 566.9 195.25 561.75 202.25 563.45 208.1 565.15 213.9 569.75 208.15 L587.8 189.95 Q595.15 178.85 594 176.8" fill="#FBFF15"/>
    <path id="i" d="M679.65 184 L680.4 193.45 Q676.15 200.3 671.1 205.95 665.3 212.45 659.65 216 650.65 221.65 644.7 220.1 639.85 218.85 636.1 212.3 634.3 209.2 633.45 206.25 632.55 203.2 632.05 198.55 634.8 194.85 635.7 190.05 636.55 185.25 633.3 188.4 634.85 179.3 642.65 168.5 646.95 162.7 652.65 158.4 659.2 154.7 665 157.65 667.3 160.5 665.35 167.6 L657.2 180.05 Q651.35 186.4 647.55 191.05 646.2 197.75 649.35 199.95 655.95 204.4 665.8 197.2 L679.65 184 M663 135.15 Q664.3 133.4 665.95 132.25 667.85 130.95 670.25 130.35 L674.95 130.15 Q677.2 130.6 678.3 132.7 679.95 135.75 679.35 138.15 L677.65 143.1 Q676.6 145.65 673.7 148.2 670.8 150.7 668.2 151.05 665 151.2 662.2 149.45 L660.85 148.05 Q660 147 659.7 145.85 659.4 144.65 659.6 142.4 659.75 140.15 661.4 137.65 L663 135.15" fill="#FBFF15"/>
    <path id="o" d="M679.65 184 Q679 178.65 682.2 171.9 684.95 166.05 689.7 160.8 695 155.05 699.8 151.35 704.85 147.4 710.45 144.9 715.45 142.65 718.75 142 722.6 141.2 726.9 141.9 730.75 142.5 731.6 145.05 732.4 147.5 730.15 150.2 734.8 154.15 735.75 160.9 737.2 171.15 732 181.45 L737.1 181.45 747.95 170.8 751.45 177.5 Q742.95 193.95 725.75 195.55 721.1 203.7 709.3 209.95 703.1 211.65 699.1 211.8 694.25 212 691.5 209.95 687.5 207 685 203.35 682.2 199.35 680.4 193.45 L679.65 184 M704 170.25 Q698.1 175.45 695.4 181.2 693.45 185.4 693.35 189.8 693.3 192.1 693.75 193.65 694.3 195.4 695.6 196.85 696.6 197.9 699.7 198.15 L703.3 198.5 Q709.5 196.3 714.2 191 706.3 185.35 714.85 162.25 706.75 167.9 704 170.25" fill="#FBFF15"/>
</svg>
