<?xml version="1.0" encoding="utf-8"?>
<!-- Generator: Adobe Illustrator 22.1.0, SVG Export Plug-In . SVG Version: 6.00 Build 0)  -->
<svg version="1.1" id="Layer_1" xmlns="http://www.w3.org/2000/svg" xmlns:xlink="http://www.w3.org/1999/xlink" x="0px" y="0px"
	 viewBox="0 0 260 260" style="enable-background:new 0 0 260 260;" xml:space="preserve">
<style type="text/css">
	.st0{fill:#007ACC;stroke:#FFFFFF;stroke-miterlimit:10;}
	.st1{fill:#FBFF15;}
	.st2{font-family:'BrushScriptStd';}
	.st3{font-size:35.9987px;}
</style>
<path class="st0" d="M19.1,124.6v-15.7l-13.2-5.3v52.8l13.2-5.3v-15.7l20.9,21v-15.5L26.1,130L40,119.1v-15.5L19.1,124.6z"/>
<path class="st0" d="M162.2,103.6l-34.1,5.3v42.2l34.1,5.3v-10.6l-20.9-3.3v-8.4h20.9v-8.4h-20.9v-8.4l20.9-3.3L162.2,103.6"/>
<g>
	<g>
		<path class="st0" d="M67.5,103.6h-7.7l-13.2,5.3v42.2l13.2,5.3h7.7l13.2-5.3v-42.2L67.5,103.6z M67.5,145.8h-7.7v-31.6h7.7V145.8z
			"/>
	</g>
</g>
<g>
	<g>
		<path class="st0" d="M115,107.9l-14.5-2.2l-13.2-2v52.8l13.2-2l14.5-2.2l6.5-1.2v-42.2L115,107.9z M115,141.5l-14.5,2.2v-27.5
			l14.5,2.3V141.5z"/>
	</g>
</g>
<text transform="matrix(0.9901 -0.1401 0.1401 0.9901 67.6367 158.0347)" class="st1 st2 st3">Studio</text>
</svg>
